<?xml version="1.0" encoding="utf-8"?>
<!-- Generator: Adobe Illustrator 19.0.0, SVG Export Plug-In . SVG Version: 6.00 Build 0)  -->
<!DOCTYPE svg PUBLIC "-//W3C//DTD SVG 1.1//EN" "http://www.w3.org/Graphics/SVG/1.1/DTD/svg11.dtd">
<svg version="1.1" id="Capa_1" xmlns="http://www.w3.org/2000/svg" xmlns:xlink="http://www.w3.org/1999/xlink" x="0px" y="0px"
	 viewBox="214 36.9 1024 768" style="enable-background:new 214 36.9 1024 768;" xml:space="preserve">
<style type="text/css">
	.st0{fill:url(#SVGID_1_);}
	.st1{fill:url(#SVGID_2_);}
	.st2{fill:url(#SVGID_3_);}
	.st3{fill:url(#SVGID_4_);}
	.st4{fill:url(#SVGID_5_);}
	.st5{fill:url(#SVGID_6_);}
	.st6{fill:url(#SVGID_7_);}
	.st7{fill:url(#SVGID_8_);}
	.st8{fill:url(#SVGID_9_);}
	.st9{fill:url(#SVGID_10_);}
	.st10{fill:url(#SVGID_11_);}
	.st11{fill:url(#SVGID_12_);}
	.st12{fill:url(#SVGID_13_);}
	.st13{fill:url(#SVGID_14_);}
	.st14{fill:url(#SVGID_15_);}
	.st15{fill:url(#SVGID_16_);}
	.st16{fill:url(#SVGID_17_);}
	.st17{fill:url(#SVGID_18_);}
	.st18{fill:url(#SVGID_19_);}
	.st19{fill:url(#SVGID_20_);}
	.st20{fill:url(#SVGID_21_);}
	.st21{fill:#FFFFFF;}
	.st22{fill:url(#SVGID_22_);}
	.st23{fill:#BFBFC0;}
</style>
<g>
	
		<radialGradient id="SVGID_1_" cx="7723.5425" cy="211.3439" r="1172.6467" fx="8012.2422" fy="625.0378" gradientTransform="matrix(0.1446 0.3891 -0.3891 0.1446 -201.1539 -2657.0686)" gradientUnits="userSpaceOnUse">
		<stop  offset="0" style="stop-color:#F5F9FF"/>
		<stop  offset="6.593410e-002" style="stop-color:#FFFFFF"/>
		<stop  offset="0.1207" style="stop-color:#FBFBFB"/>
		<stop  offset="0.1718" style="stop-color:#F0F0F0"/>
		<stop  offset="0.2215" style="stop-color:#DDDDDE"/>
		<stop  offset="0.2703" style="stop-color:#C3C3C4"/>
		<stop  offset="0.3185" style="stop-color:#A0A1A2"/>
		<stop  offset="0.3661" style="stop-color:#767779"/>
		<stop  offset="0.4134" style="stop-color:#444648"/>
		<stop  offset="0.4593" style="stop-color:#0C0E11"/>
		<stop  offset="0.4648" style="stop-color:#05070A"/>
		<stop  offset="0.4649" style="stop-color:#121418"/>
		<stop  offset="0.4663" style="stop-color:#969CA2"/>
		<stop  offset="0.4904" style="stop-color:#82888E"/>
		<stop  offset="0.5392" style="stop-color:#60656B"/>
		<stop  offset="0.5888" style="stop-color:#454950"/>
		<stop  offset="0.6387" style="stop-color:#32363C"/>
		<stop  offset="0.6891" style="stop-color:#272A31"/>
		<stop  offset="0.7408" style="stop-color:#23262D"/>
	</radialGradient>
	<path class="st0" d="M870.8,178.8c2.5-2.6,5.2-4.9,7.9-6.9c2.7-2,5.6-3.6,8.5-5c2.9-1.3,5.9-2.4,8.8-3.1c3-0.7,0.5-7,3.5-7.1
		c-13,0.4-26,0.8-39,1.2c-2.8,0.1-5.7,0.5-8.5,1.1c-2.8,0.7-5.6,1.6-8.4,2.9c-2.8,1.3-5.5,2.8-8.1,4.7c-2.6,1.9-5.1,4-7.5,6.5
		L700.3,305.9l32,15.8L870.8,178.8z"/>
	
		<linearGradient id="SVGID_2_" gradientUnits="userSpaceOnUse" x1="-890.5035" y1="25.1629" x2="-844.6002" y2="342.1264" gradientTransform="matrix(0.3484 0.9374 -0.9374 0.3484 1384.9167 906.5522)">
		<stop  offset="0" style="stop-color:#FFFFFF"/>
		<stop  offset="0.17" style="stop-color:#B8BBBD"/>
		<stop  offset="0.3435" style="stop-color:#747A7F"/>
		<stop  offset="0.4251" style="stop-color:#5A6166"/>
		<stop  offset="0.6173" style="stop-color:#31363C"/>
		<stop  offset="0.7423" style="stop-color:#1B1F25"/>
		<stop  offset="1" style="stop-color:#000000"/>
		<stop  offset="1" style="stop-color:#000000"/>
	</linearGradient>
	<path class="st1" d="M899.6,156.7c-12.2-0.6-20.5-0.8-35.1-0.4c-3.8,0-12.4,0.1-21.5,4.3c-9.4,3.9-17.4,12.9-24.8,20.6
		c-15.1,15.7-28.8,30-28.8,30s-54.9,57-65.9,68.5c-10.1,10.5-15.5,16.9-23.3,26.3c9.1-8.1,15.3-13.7,25.4-24.2
		c11-11.4,65.9-68.5,65.9-68.5s13.7-14.3,28.8-29.9c7.5-7.9,15.1-16.3,23.9-20c8.6-3.9,16.3-4,20.3-4
		C879.2,158.8,887.4,158,899.6,156.7z"/>
	
		<radialGradient id="SVGID_3_" cx="8335.3389" cy="913.4077" r="2514.4915" fx="8954.3945" fy="1800.4862" gradientTransform="matrix(0.1446 0.3891 -0.3891 0.1446 -201.1539 -2657.0686)" gradientUnits="userSpaceOnUse">
		<stop  offset="0" style="stop-color:#F5F9FF"/>
		<stop  offset="0" style="stop-color:#FFFFFF"/>
		<stop  offset="5.247412e-002" style="stop-color:#F5F5F6"/>
		<stop  offset="0.1408" style="stop-color:#DBDCDC"/>
		<stop  offset="0.2535" style="stop-color:#B1B2B3"/>
		<stop  offset="0.3521" style="stop-color:#86888A"/>
		<stop  offset="0.4155" style="stop-color:#BCBEC3"/>
		<stop  offset="0.43" style="stop-color:#A2A4A9"/>
		<stop  offset="0.4611" style="stop-color:#5F6165"/>
		<stop  offset="0.4992" style="stop-color:#05070A"/>
		<stop  offset="0.5807" style="stop-color:#3B3E43"/>
		<stop  offset="0.5852" style="stop-color:#484B50"/>
		<stop  offset="0.5934" style="stop-color:#6B6E72"/>
		<stop  offset="0.6045" style="stop-color:#A2A5A8"/>
		<stop  offset="0.6111" style="stop-color:#C6C9CC"/>
		<stop  offset="0.6449" style="stop-color:#4C4E52"/>
		<stop  offset="0.6677" style="stop-color:#23262D"/>
	</radialGradient>
	<path class="st2" d="M475.8,593.9l50.4-52.6c5.1-5.3,9.4-11.4,13-17.4c3.6-6.1,6.6-12.2,8.9-17.7c2.3-5.5,4-10.4,5.2-14
		c1.1-3.6,1.7-5.9,1.8-6.3l69.2-223.5c2.6-8.5,6.2-16.1,10.6-22.7c4.4-6.6,9.5-12.3,15.2-16.8c5.7-4.5,12-7.8,18.7-9.9
		c6.6-2.1,4-8.7,11.1-8.2c-9.1-0.7-18.2-1.3-27.4-2c-6.8-0.5-13.3,0.3-19.6,2.2c-6.3,1.9-12.1,5.1-17.5,9.2
		c-5.4,4.2-10.2,9.4-14.2,15.6c-4.1,6.2-7.4,13.3-9.8,21.2L528,459.8c-0.1,0.3-0.6,2.5-1.7,5.9c-1.1,3.4-2.6,8-4.8,13.1
		c-2.2,5.1-4.9,10.9-8.3,16.5c-3.4,5.7-7.4,11.3-12.2,16.2l-34.4,35.8l-19,19.7l12.4,28.8L475.8,593.9z"/>
	
		<linearGradient id="SVGID_4_" gradientUnits="userSpaceOnUse" x1="-1181.5916" y1="143.4504" x2="-517.8776" y2="901.7622" gradientTransform="matrix(0.3484 0.9374 -0.9374 0.3484 1384.9167 906.5522)">
		<stop  offset="0" style="stop-color:#FFFFFF"/>
		<stop  offset="0.1742" style="stop-color:#B8BBBD"/>
		<stop  offset="0.352" style="stop-color:#747A7F"/>
		<stop  offset="0.4356" style="stop-color:#5A6166"/>
		<stop  offset="0.6214" style="stop-color:#31363C"/>
		<stop  offset="0.7423" style="stop-color:#1B1F25"/>
		<stop  offset="1" style="stop-color:#000000"/>
		<stop  offset="1" style="stop-color:#000000"/>
		<stop  offset="1" style="stop-color:#000000"/>
	</linearGradient>
	<path class="st3" d="M679.9,204.7c-20.9-1.2-38.1-9.2-61.8,5.7c-6,3.9-17.5,13.8-24.5,30.2c-6.4,16.4-11.3,36-17.3,54.6
		c-11.3,37.3-21.6,71.2-21.6,71.2s-10.3,33.9-21.6,71.2c-5.9,18.6-10.4,38.6-19.3,53.3c-8,15.2-19,24.3-23.7,29.7
		c-18.1,18.9-28,29.9-42.5,46.3c15.8-15.1,26.5-25.4,44.6-44.2c4.6-5.2,15.9-14.6,24.2-30.3c9.1-15.2,13.7-35.4,19.5-53.9
		c11.3-37.3,21.6-71.2,21.6-71.2s10.3-33.9,21.6-71.2c5.9-18.5,11-38.6,17.2-54.3c6.7-15.8,17.7-25.2,23.4-28.9
		C641.8,198.8,658.5,205.3,679.9,204.7z"/>
	
		<radialGradient id="SVGID_5_" cx="8616.1875" cy="865.6722" r="2380.4221" fx="9034.375" fy="1549.8711" gradientTransform="matrix(0.1446 0.3891 -0.3891 0.1446 -201.1539 -2657.0686)" gradientUnits="userSpaceOnUse">
		<stop  offset="0" style="stop-color:#FBFDFF"/>
		<stop  offset="9.930940e-002" style="stop-color:#FFFFFF"/>
		<stop  offset="0.1308" style="stop-color:#F5F5F5"/>
		<stop  offset="0.184" style="stop-color:#DBDBDC"/>
		<stop  offset="0.2523" style="stop-color:#B0B1B2"/>
		<stop  offset="0.333" style="stop-color:#757678"/>
		<stop  offset="0.4232" style="stop-color:#2A2C2E"/>
		<stop  offset="0.4648" style="stop-color:#05070A"/>
		<stop  offset="0.4654" style="stop-color:#757678"/>
		<stop  offset="0.4663" style="stop-color:#FFFFFF"/>
		<stop  offset="0.4782" style="stop-color:#E5E6E6"/>
		<stop  offset="0.5044" style="stop-color:#B3B4B5"/>
		<stop  offset="0.5312" style="stop-color:#87898B"/>
		<stop  offset="0.5581" style="stop-color:#646669"/>
		<stop  offset="0.585" style="stop-color:#484B4E"/>
		<stop  offset="0.6122" style="stop-color:#35373B"/>
		<stop  offset="0.6396" style="stop-color:#292C30"/>
		<stop  offset="0.6677" style="stop-color:#25282C"/>
	</radialGradient>
	<path class="st4" d="M938.4,177.5c4.3,6.3,7.3,13.4,9.1,20.9c1.8,7.4,2.3,15.2,1.6,22.9c-0.7,7.7-2.5,15.3-5.5,22.4
		c-3,7.1-7.1,13.7-12.4,19.4l-53.9,58.2c1.3,1.1,2.6,2.3,3.8,3.6c1.3,1.3,2.5,2.7,3.8,4.2c1.3,1.5,2.5,3,3.8,4.6
		c1.3,1.6,2.6,3.3,4,5c3.1,4,5.6,8.4,7.4,13.1c1.8,4.7,3,9.6,3.6,14.7c0.6,5.1,0.5,10.3-0.1,15.4c-0.6,5.2-1.9,10.3-3.7,15.3
		c1.6,0.9,3.1,2.1,4.6,3.3c1.5,1.3,3,2.7,4.4,4.2c1.4,1.5,2.9,3.1,4.3,4.9c1.4,1.7,2.9,3.5,4.4,5.4c3.2,3.9,5.6,8.3,7.3,13
		c1.7,4.7,2.7,9.7,3,14.9c0.3,5.1-0.1,10.4-1.2,15.6c-1.1,5.2-2.8,10.4-5.1,15.4c1.3,0.8,2.6,1.8,3.9,2.9c1.2,1.1,2.5,2.2,3.6,3.4
		c1.2,1.2,2.4,2.5,3.5,3.9c1.2,1.4,2.4,2.7,3.6,4.2c3.7,4.4,6.3,9.6,7.8,15.2c1.5,5.6,1.9,11.7,1.4,17.8c-0.6,6.1-2.2,12.4-4.7,18.3
		c-2.6,6-6.1,11.7-10.6,16.8L829.7,670.6c-4.4,5-8.5,9.3-12.3,12.9c-3.8,3.7-7.3,6.7-10.2,9.1c-3,2.5-5.5,4.3-7.5,5.7
		c-1.9,1.4-3.3,2.2-4,2.6c-1.6,0.9-6.3,3.8-12.8,7.8c-6.6,4.1-15.1,9.4-24.5,15.3c-9.5,5.9-19.8,12.5-30,18.9
		c-10.2,6.5-20.3,12.8-29,18.3l-14.7,9.3L460.1,595.8l20.3-21.3l36.8-38.6c5.1-5.3,9.4-11.4,13-17.4c3.6-6.1,6.6-12.2,8.9-17.7
		c2.3-5.5,4-10.4,5.1-14c1.1-3.6,1.7-5.9,1.8-6.3l68.6-224c2.9-9.3,6.9-17.6,11.9-24.7c5-7.1,10.8-12.9,17.4-17.4
		c6.5-4.4,13.6-7.5,21.2-8.9c7.5-1.5,15.3-1.4,23.3,0.3c3.2,0.7,6.4,1.7,9.4,2.9c3,1.2,5.9,2.7,8.7,4.4c2.8,1.7,5.4,3.6,7.9,5.8
		c2.5,2.1,4.8,4.5,7,7.1c3.3,3.9,6,8.1,8.3,12.6c2.3,4.5,4,9.2,5.2,14.2c1.2,4.9,1.9,9.9,2.1,15c0.2,5.1-0.2,10.2-1.2,15.3l-6,31.8
		l135.7-142.1c5.6-5.9,12-10.2,18.6-12.9c6.6-2.7,13.4-3.7,20-3.3c6.6,0.5,13,2.5,18.9,6C928.7,166.2,934,171.1,938.4,177.5z"/>
	
		<radialGradient id="SVGID_6_" cx="8307.2891" cy="497.0352" r="820.0383" fx="7578.9521" fy="214.6124" gradientTransform="matrix(0.1446 0.3891 -0.3891 0.1446 -201.1539 -2657.0686)" gradientUnits="userSpaceOnUse">
		<stop  offset="0" style="stop-color:#FFFFFF"/>
		<stop  offset="0.1742" style="stop-color:#B8BBBD"/>
		<stop  offset="0.352" style="stop-color:#747A7F"/>
		<stop  offset="0.4356" style="stop-color:#5A6166"/>
		<stop  offset="0.6214" style="stop-color:#31363C"/>
		<stop  offset="0.7423" style="stop-color:#1B1F25"/>
		<stop  offset="1" style="stop-color:#000000"/>
		<stop  offset="1" style="stop-color:#000000"/>
	</radialGradient>
	<path class="st5" d="M921.5,473.7c14.4,12.8,24.9,25,22.4,48.6c-0.5,6.2-3.6,19-13.4,31.1c-10,12-22.5,25.8-34.1,39.1
		c-23.4,26.6-44.6,50.9-44.6,50.9c-5,5.5-23.6,31.4-46.3,48.9c-29,19.7-62.6,39.5-73.2,46.6c-20.1,12.7-31.3,20.2-47.7,31.5
		c17.2-10,28.8-16.8,48.9-29.4c10.7-7.2,43.9-26.7,73.4-46.8c20.6-15.6,41.7-43.7,46.6-49.2c0,0,21.3-24.2,44.6-50.9
		c11.6-13.4,24-27.1,34.1-39.2c10.1-12.6,13.3-25.9,13.9-32.4C948.9,497.8,936.8,485.1,921.5,473.7z"/>
	
		<radialGradient id="SVGID_7_" cx="7125.9824" cy="293.9305" r="612.7744" fx="7384.7725" fy="194.3435" gradientTransform="matrix(0.1446 0.3891 -0.3891 0.1446 -201.1539 -2657.0686)" gradientUnits="userSpaceOnUse">
		<stop  offset="0" style="stop-color:#FBFDFF"/>
		<stop  offset="0.1126" style="stop-color:#C9CCCE"/>
		<stop  offset="0.2594" style="stop-color:#8F9295"/>
		<stop  offset="0.3949" style="stop-color:#616468"/>
		<stop  offset="0.5146" style="stop-color:#404347"/>
		<stop  offset="0.614" style="stop-color:#2C2F33"/>
		<stop  offset="0.681" style="stop-color:#25282C"/>
		<stop  offset="0.8048" style="stop-color:#1C1F22"/>
		<stop  offset="1" style="stop-color:#05070A"/>
	</radialGradient>
	<path class="st6" d="M729.7,315c8.4-7.5,14.1-12.6,23.4-22.3c10.1-10.5,60.4-63.3,60.4-63.3c0.2,0.4,49.9-53.7,60.9-62.4
		c10.8-7.2,18.3-9.6,29.5-10.2c-11.1-1.3-19.8,0.1-31.2,7.8c-11.9,9.4-61,63-61.4,62.7c0,0-50.4,52.7-60.5,63.3
		C741.6,300.4,736.7,306.3,729.7,315z"/>
	
		<radialGradient id="SVGID_8_" cx="8535.8857" cy="972.2415" r="8797.168" fx="9245.1484" fy="1494.9738" gradientTransform="matrix(0.1446 0.3891 -0.3891 0.1446 -201.1539 -2657.0686)" gradientUnits="userSpaceOnUse">
		<stop  offset="0.1316" style="stop-color:#FFFFFF"/>
		<stop  offset="0.3918" style="stop-color:#666666"/>
		<stop  offset="0.66" style="stop-color:#242424"/>
		<stop  offset="1" style="stop-color:#000000"/>
	</radialGradient>
	<path class="st7" d="M921.9,195.3c-2.6-3.6-5.6-6.4-9-8.3c-3.4-1.9-7.1-3-10.9-3.3c-3.8-0.2-7.7,0.4-11.4,2
		c-3.7,1.6-7.3,4-10.5,7.4L661.5,423.5l-12.7-12.8l47-49.3l15.2-82.6c0.6-3.1,0.8-6.2,0.7-9.2c-0.1-3-0.6-5.9-1.3-8.8
		c-0.8-2.8-1.8-5.5-3.1-8.1c-1.3-2.5-2.9-4.9-4.8-7.1c-1.2-1.4-2.5-2.7-3.9-3.9c-1.4-1.2-2.9-2.3-4.5-3.3c-1.6-1-3.3-1.8-5-2.5
		c-1.8-0.7-3.6-1.2-5.5-1.6c-4.9-1-9.5-0.9-13.9,0.1c-4.4,1-8.4,3-12.1,5.8c-3.7,2.8-6.9,6.4-9.7,10.7c-2.8,4.3-5.1,9.2-6.8,14.7
		l-67.7,219c0,0-0.6,2.5-1.9,6.8c-1.3,4.2-3.3,10.2-6.2,17c-2.8,6.8-6.5,14.4-11.1,22.1c-4.6,7.7-10.2,15.4-16.8,22.4l-36.2,38.2
		l189.7,151.7c0,0,5.7-3.6,14.4-9c8.7-5.4,20.2-12.6,32-19.9c11.7-7.2,23.5-14.6,33-20.4c9.4-5.8,16.5-10.1,18.7-11.3
		c0,0,0.7-0.4,2.1-1.4c1.3-0.9,3.3-2.4,5.8-4.3c2.4-2,5.4-4.5,8.7-7.6c3.3-3.1,6.9-6.8,10.8-11.2l101.6-115.3
		c2.5-2.8,4.4-5.9,5.8-9.2c1.4-3.3,2.3-6.7,2.6-10c0.3-3.4,0-6.6-0.8-9.7c-0.8-3-2.3-5.8-4.3-8.2c-3.6-4.2-6.4-7.3-8.8-9.4
		c-2.4-2.1-4.5-3-6.6-2.8c-2.1,0.2-4.4,1.6-7.2,4.1c-2.8,2.6-6.2,6.3-10.7,11.4l-17.3,19.4l-10.2-11.1l38.4-42.8
		c2.7-3.1,4.9-6.5,6.4-10.1c1.5-3.6,2.5-7.4,2.8-11.2c0.3-3.8,0-7.5-1-11c-1-3.5-2.6-6.7-4.9-9.4c-4.1-4.9-7.3-8.6-10-11.1
		c-2.7-2.4-5-3.6-7.4-3.5c-2.4,0.1-4.9,1.6-8,4.4c-3.1,2.8-7,7-12,12.5l-32,35.2l-10.2-11.3l50.4-55.2c3-3.3,5.4-7.1,7.1-11.2
		c1.7-4,2.7-8.3,3-12.5c0.3-4.2-0.1-8.4-1.2-12.4c-1.1-4-2.9-7.7-5.5-10.9c-4.6-5.7-8.2-10.1-11.2-13c-3.1-2.9-5.6-4.3-8.2-4.3
		c-2.7,0-5.4,1.6-9,4.6c-3.5,3.1-7.8,7.6-13.5,13.7l-43.3,46.6l-10.7-12l137.5-147.5c3.1-3.3,5.5-7.1,7.2-11.3
		c1.7-4.1,2.8-8.6,3.2-13c0.4-4.5,0.1-9-1-13.3C926.2,203,924.4,198.9,921.9,195.3z"/>
	
		<radialGradient id="SVGID_9_" cx="7083.2617" cy="787.2443" r="1310.5406" fx="7758.4443" fy="983.908" gradientTransform="matrix(0.1446 0.3891 -0.3891 0.1446 -201.1539 -2657.0686)" gradientUnits="userSpaceOnUse">
		<stop  offset="0" style="stop-color:#FBFDFF"/>
		<stop  offset="0.1126" style="stop-color:#C9CCCE"/>
		<stop  offset="0.2594" style="stop-color:#8F9295"/>
		<stop  offset="0.3949" style="stop-color:#616468"/>
		<stop  offset="0.5146" style="stop-color:#404347"/>
		<stop  offset="0.614" style="stop-color:#2C2F33"/>
		<stop  offset="0.681" style="stop-color:#25282C"/>
		<stop  offset="0.8048" style="stop-color:#1C1F22"/>
		<stop  offset="1" style="stop-color:#05070A"/>
	</radialGradient>
	<path class="st8" d="M665,205.6c-20.2,4-34,13.9-46,36c-6.8,13.1-11.1,32.3-13,37.7l-35.8,117.1c0,0-9.9,32.3-20.8,67.8
		c-5.4,17.8-10.4,36.5-18.9,50.6c-7.6,14.5-17.8,23.4-22.4,28.4c-17.3,18-34.4,36.9-48.1,52.6c15.1-14.3,33-32.6,50.3-50.5
		c4.5-4.8,15-14.2,22.9-29c8.7-14.4,13.8-33.5,19.2-51.2c10.9-35.5,20.8-67.8,20.8-67.8l36-117.5c1.7-5,6.9-26.4,12.6-36.9
		C633.3,221.6,645.3,211.6,665,205.6z"/>
	
		<radialGradient id="SVGID_10_" cx="8370.293" cy="222.7423" r="7292.8257" fx="8631.9609" fy="857.8933" gradientTransform="matrix(0.1446 0.3891 -0.3891 0.1446 -201.1539 -2657.0686)" gradientUnits="userSpaceOnUse">
		<stop  offset="0.1316" style="stop-color:#FFFFFF"/>
		<stop  offset="0.3918" style="stop-color:#666666"/>
		<stop  offset="0.66" style="stop-color:#242424"/>
		<stop  offset="1" style="stop-color:#000000"/>
	</radialGradient>
	<path class="st9" d="M873.8,592.4l43.9-49.8c2.5-2.8,4.4-5.9,5.8-9.2c1.4-3.3,2.3-6.7,2.6-10c0.3-3.4,0-6.6-0.8-9.7
		c-0.8-3-2.3-5.8-4.3-8.2c-3.6-4.2-6.4-7.3-8.8-9.4c-2.4-2.1-4.5-3-6.6-2.8c-2.1,0.2-4.4,1.6-7.2,4.1c-2.8,2.6-6.2,6.3-10.7,11.4
		l-17.3,19.4l-10.2-11.1l38.4-42.8c2.7-3.1,4.9-6.5,6.4-10.1c1.5-3.6,2.5-7.4,2.8-11.2c0.3-3.8,0-7.5-1-11c-1-3.5-2.6-6.7-4.9-9.4
		c-4.1-4.9-7.3-8.6-10-11.1c-2.7-2.4-5-3.6-7.4-3.5c-2.4,0.1-4.9,1.6-8,4.4c-3.1,2.8-7,7-12,12.5l-32,35.2l-10.2-11.3l50.4-55.2
		c3-3.3,5.4-7.1,7.1-11.2c1.7-4,2.7-8.3,3-12.5c0.3-4.2-0.1-8.4-1.2-12.4c-1.1-4-2.9-7.7-5.5-10.9c-4.6-5.7-8.2-10.1-11.2-13
		c-3.1-2.9-5.6-4.3-8.2-4.3c-2.7,0-5.4,1.6-9,4.6c-3.5,3.1-7.8,7.6-13.5,13.7l-43.3,46.6l-10.7-12l137.5-147.5
		c3.1-3.3,5.5-7.1,7.2-11.3c1.7-4.1,2.8-8.6,3.2-13c0.4-4.5,0.1-9-1-13.3c-1.1-4.3-2.8-8.4-5.4-12c-2.6-3.6-5.6-6.4-9-8.3
		c-3.4-1.9-7.1-3-10.9-3.3c-3.8-0.2-7.7,0.4-11.4,2c-3.7,1.6-7.3,4-10.5,7.4L661.5,423.5l-12.7-12.8l47-49.3l15.2-82.6
		c0.6-3.1,0.8-6.2,0.7-9.2c-0.1-3-0.6-5.9-1.3-8.8c-0.8-2.8-1.8-5.5-3.1-8.1c-1.3-2.5-2.9-4.9-4.8-7.1c-1.2-1.4-2.5-2.7-3.9-3.9
		c-1.4-1.2-2.9-2.3-4.5-3.3c-1.6-1-3.3-1.8-5-2.5c-1.8-0.7-3.6-1.2-5.5-1.6c-4.9-1-9.5-0.9-13.9,0.1c-4.4,1-8.4,3-12.1,5.8
		c-3.7,2.8-6.9,6.4-9.7,10.7c-2.8,4.3-5.1,9.2-6.8,14.7l-67.7,219c0,0-0.6,2.5-1.9,6.8c-0.8,2.7-1.9,6-3.4,9.9
		C677.4,501.4,783.6,533.7,873.8,592.4z"/>
	
		<linearGradient id="SVGID_11_" gradientUnits="userSpaceOnUse" x1="-331.1306" y1="464.1254" x2="-714.8679" y2="902.0283" gradientTransform="matrix(0.3484 0.9374 -0.9374 0.3484 1384.9167 906.5522)">
		<stop  offset="0" style="stop-color:#FFFFFF"/>
		<stop  offset="0.3423" style="stop-color:#5A5E67"/>
		<stop  offset="0.66" style="stop-color:#202125"/>
		<stop  offset="1" style="stop-color:#000000"/>
	</linearGradient>
	<path class="st10" d="M664.5,723.1c6.7,5.4,16.7,13.2,26.3,19.7c-8.5-7.7-17.9-16.2-24.8-21.3c-7.5-5.6-126.6-102.1-138.2-111.3
		c-10.7-8.5-17.1-12.8-26.7-19.1c8.2,8,13.8,13.3,24.5,21.9L664.5,723.1z"/>
	
		<radialGradient id="SVGID_12_" cx="7880.4736" cy="178.1991" r="860.6117" fx="7517.5337" fy="209.8508" gradientTransform="matrix(0.1446 0.3891 -0.3891 0.1446 -201.1539 -2657.0686)" gradientUnits="userSpaceOnUse">
		<stop  offset="0" style="stop-color:#000000"/>
		<stop  offset="0" style="stop-color:#000000"/>
		<stop  offset="0.2577" style="stop-color:#1B1F25"/>
		<stop  offset="0.3786" style="stop-color:#31363C"/>
		<stop  offset="0.5644" style="stop-color:#5A6166"/>
		<stop  offset="0.648" style="stop-color:#747A7F"/>
		<stop  offset="0.8258" style="stop-color:#B8BBBD"/>
		<stop  offset="1" style="stop-color:#FFFFFF"/>
	</radialGradient>
	<path class="st11" d="M921.9,195.3c-8.5-14.5-28.8-18.8-43.8-2.7c-15.3,16.1-92,97-92,97s-76.7,80.8-92,97
		c-14.1,14.9-21.7,23.8-32.7,37c12.6-11.7,21.1-19.7,35.3-34.6c15.3-16.1,92-97,92-97s76.7-80.8,92-97
		C894.2,180.8,911,182.4,921.9,195.3z"/>
	
		<radialGradient id="SVGID_13_" cx="7653.7109" cy="490.2444" r="424.3932" fx="7846.8618" fy="674.3308" gradientTransform="matrix(0.1446 0.3891 -0.3891 0.1446 -201.1539 -2657.0686)" gradientUnits="userSpaceOnUse">
		<stop  offset="0" style="stop-color:#FFFFFF"/>
		<stop  offset="0.1742" style="stop-color:#B8BBBD"/>
		<stop  offset="0.352" style="stop-color:#747A7F"/>
		<stop  offset="0.4356" style="stop-color:#5A6166"/>
		<stop  offset="0.6214" style="stop-color:#31363C"/>
		<stop  offset="0.7423" style="stop-color:#1B1F25"/>
		<stop  offset="1" style="stop-color:#000000"/>
		<stop  offset="1" style="stop-color:#000000"/>
	</radialGradient>
	<path class="st12" d="M837.2,356.2c6.4-6.9,11.9-15.2,19.6-16.8c-7.5,0-14.7,7.8-21.2,15.1l-31,33.6c-2.7,2.9-10.5,11.9-13.5,16.3
		c4.7-3.6,12.5-11.9,15.2-14.8L837.2,356.2z"/>
	
		<radialGradient id="SVGID_14_" cx="7878.6152" cy="326.2714" r="339.2641" fx="7981.5376" fy="568.8048" gradientTransform="matrix(0.1446 0.3891 -0.3891 0.1446 -201.1539 -2657.0686)" gradientUnits="userSpaceOnUse">
		<stop  offset="0" style="stop-color:#FFFFFF"/>
		<stop  offset="0.1742" style="stop-color:#B8BBBD"/>
		<stop  offset="0.352" style="stop-color:#747A7F"/>
		<stop  offset="0.4356" style="stop-color:#5A6166"/>
		<stop  offset="0.6214" style="stop-color:#31363C"/>
		<stop  offset="0.7423" style="stop-color:#1B1F25"/>
		<stop  offset="1" style="stop-color:#000000"/>
		<stop  offset="1" style="stop-color:#000000"/>
	</radialGradient>
	<path class="st13" d="M868.4,432.4c3.3-3.6,10.8-13.1,16.1-14.4c-5.8-0.4-14.9,9.7-17.5,12.8l-26.4,28.8c-2,2.2-6.1,7.3-8,10.5
		c3-2,7.6-6.9,9.6-9L868.4,432.4z"/>
	
		<radialGradient id="SVGID_15_" cx="8019.9092" cy="185.5795" r="227.2294" fx="8036.8887" fy="412.1736" gradientTransform="matrix(0.1446 0.3891 -0.3891 0.1446 -201.1539 -2657.0686)" gradientUnits="userSpaceOnUse">
		<stop  offset="0" style="stop-color:#FFFFFF"/>
		<stop  offset="0.1742" style="stop-color:#B8BBBD"/>
		<stop  offset="0.352" style="stop-color:#747A7F"/>
		<stop  offset="0.4356" style="stop-color:#5A6166"/>
		<stop  offset="0.6214" style="stop-color:#31363C"/>
		<stop  offset="0.7423" style="stop-color:#1B1F25"/>
		<stop  offset="1" style="stop-color:#000000"/>
		<stop  offset="1" style="stop-color:#000000"/>
	</radialGradient>
	<path class="st14" d="M905.5,493.3c-2.7-0.2-7.6,3.2-10.7,6.4c0,0-8.4,9.2-8.4,9.2c0,0-6.1,6.8-7.9,8.8c-1.7,1.9-6.9,8.1-8.1,10.4
		c2.6-2,7.6-7.4,9.3-9.3c1.9-2,8.1-8.7,8.1-8.7c0,0,8.5-9.6,8.5-9.6C898.9,497.7,902.4,494.3,905.5,493.3z"/>
	
		<radialGradient id="SVGID_16_" cx="7932.9087" cy="240.666" r="329.4203" fx="8062.9219" fy="243.3506" gradientTransform="matrix(0.1446 0.3891 -0.3891 0.1446 -201.1539 -2657.0686)" gradientUnits="userSpaceOnUse">
		<stop  offset="0" style="stop-color:#FFFFFF"/>
		<stop  offset="0.1742" style="stop-color:#B8BBBD"/>
		<stop  offset="0.352" style="stop-color:#747A7F"/>
		<stop  offset="0.4356" style="stop-color:#5A6166"/>
		<stop  offset="0.6214" style="stop-color:#31363C"/>
		<stop  offset="0.7423" style="stop-color:#1B1F25"/>
		<stop  offset="1" style="stop-color:#000000"/>
		<stop  offset="1" style="stop-color:#000000"/>
	</radialGradient>
	<path class="st15" d="M921.5,473.7c0,0,3.4-9.1,4.9-19.4c0.4-2.9,0.7-6.2,0.5-9.4c0-7.2-1.9-13.6-2-13.5c0.1,0-1.5-6.5-5.6-12.4
		c0,0-6.8-11.1-19.5-21.9c12.9,8.1,21,20.9,21,20.9c4.2,6.2,5.9,12.9,5.8,12.9c0.1,0,2,6.5,2.1,14c0.2,3.5-0.1,7.1-0.6,10.2
		C928.1,455.1,926.7,464.7,921.5,473.7z"/>
	
		<radialGradient id="SVGID_17_" cx="7765.1445" cy="285.3031" r="293.2357" fx="7504.7002" fy="184.3121" gradientTransform="matrix(0.1446 0.3891 -0.3891 0.1446 -201.1539 -2657.0686)" gradientUnits="userSpaceOnUse">
		<stop  offset="0" style="stop-color:#FFFFFF"/>
		<stop  offset="0.1742" style="stop-color:#B8BBBD"/>
		<stop  offset="0.352" style="stop-color:#747A7F"/>
		<stop  offset="0.4356" style="stop-color:#5A6166"/>
		<stop  offset="0.6214" style="stop-color:#31363C"/>
		<stop  offset="0.7423" style="stop-color:#1B1F25"/>
		<stop  offset="1" style="stop-color:#000000"/>
		<stop  offset="1" style="stop-color:#000000"/>
	</radialGradient>
	<path class="st16" d="M904.6,368.7c-0.5-7.2-2.5-13.5-2.6-13.5c0.1,0-1.8-6.4-5.6-12.5c0,0-7.3-12.1-19.3-21.5
		c12.1,13.1,17.7,22.5,17.7,22.5c3.8,5.6,5.5,12.1,5.5,12.1c6.4,21.8-0.5,41.3-0.5,41.3S905.8,386.9,904.6,368.7z"/>
	
		<linearGradient id="SVGID_18_" gradientUnits="userSpaceOnUse" x1="-343.6376" y1="531.1479" x2="-698.3" y2="862.0079" gradientTransform="matrix(0.3484 0.9374 -0.9374 0.3484 1384.9167 906.5522)">
		<stop  offset="0" style="stop-color:#FFFFFF"/>
		<stop  offset="0.3423" style="stop-color:#5A5E67"/>
		<stop  offset="0.66" style="stop-color:#202125"/>
		<stop  offset="1" style="stop-color:#000000"/>
	</linearGradient>
	<path class="st17" d="M456.7,591.2c0.8,1.8,1.6,3.7,2.4,5.7c1.3,1,2.6,2,3.9,3c38.1,29.7,108.4,84.3,108.4,84.3s68.4,53.2,82,63.7
		c12.6,9.8,20.1,14.9,31.2,22.4c-9.9-8.9-16.8-14.9-29.4-24.7c-13.6-10.6-82-63.7-82-63.7s-75.4-58.4-112.3-87.1l-13.4-27.8
		L456.7,591.2z"/>
	
		<radialGradient id="SVGID_19_" cx="8287.4229" cy="584.1038" r="943.3912" fx="8404.1602" fy="-104.7264" gradientTransform="matrix(0.1446 0.3891 -0.3891 0.1446 -201.1539 -2657.0686)" gradientUnits="userSpaceOnUse">
		<stop  offset="0" style="stop-color:#FFFFFF"/>
		<stop  offset="0.1742" style="stop-color:#B8BBBD"/>
		<stop  offset="0.352" style="stop-color:#747A7F"/>
		<stop  offset="0.4356" style="stop-color:#5A6166"/>
		<stop  offset="0.6214" style="stop-color:#31363C"/>
		<stop  offset="0.7423" style="stop-color:#1B1F25"/>
		<stop  offset="1" style="stop-color:#000000"/>
		<stop  offset="1" style="stop-color:#000000"/>
	</radialGradient>
	<path class="st18" d="M690.8,742.9c14.7-8.3,24.6-14,41.7-24.6c9.2-5.9,37.2-22.7,62.7-39c9-5.8,22.2-21.2,22.2-21.2
		s90.3-101.7,104.3-118.9c5.4-6.9,6.5-17.7,4.6-25.1c-2-7.8-8.1-12.5-14.1-18.1c5.5,6.2,11.1,11.3,12.4,18.5
		c1.3,7,0.3,16.4-4.9,23.4C906,554.6,815.6,656.6,815.6,656.6s-12.2,14.4-21.8,20.8c-25.1,16-53.4,33-62.5,38.9
		C714.2,726.9,704.7,733.3,690.8,742.9z"/>
	
		<radialGradient id="SVGID_20_" cx="7672.9424" cy="66.4547" r="713.5687" fx="8190.8804" fy="391.6076" gradientTransform="matrix(0.1446 0.3891 -0.3891 0.1446 -201.1539 -2657.0686)" gradientUnits="userSpaceOnUse">
		<stop  offset="0" style="stop-color:#FFFFFF"/>
		<stop  offset="0.1742" style="stop-color:#B8BBBD"/>
		<stop  offset="0.352" style="stop-color:#747A7F"/>
		<stop  offset="0.4356" style="stop-color:#5A6166"/>
		<stop  offset="0.6214" style="stop-color:#31363C"/>
		<stop  offset="0.7423" style="stop-color:#1B1F25"/>
		<stop  offset="1" style="stop-color:#000000"/>
		<stop  offset="1" style="stop-color:#000000"/>
	</radialGradient>
	<path class="st19" d="M902,433.6c3.2,4.2,6.3,12.8,4.3,22.6c-1.5,9.7-7.6,16.4-7.6,16.4s-24.7,27.9-28.5,32.2
		c-3.5,4-6.6,7.9-10.1,12.3c4.1-4,7.6-7.4,11.1-11.3c3.8-4.3,28.8-32,28.8-32s6.5-7.1,8-17.3c2-10.4-1.8-19.6-5-23.6
		c-4.3-5.1-7-7.7-11.1-11.4L902,433.6z"/>
	
		<radialGradient id="SVGID_21_" cx="7578.9556" cy="124.3446" r="845.7742" fx="8192.8545" fy="509.7397" gradientTransform="matrix(0.1446 0.3891 -0.3891 0.1446 -201.1539 -2657.0686)" gradientUnits="userSpaceOnUse">
		<stop  offset="0" style="stop-color:#FFFFFF"/>
		<stop  offset="0.1742" style="stop-color:#B8BBBD"/>
		<stop  offset="0.352" style="stop-color:#747A7F"/>
		<stop  offset="0.4356" style="stop-color:#5A6166"/>
		<stop  offset="0.6214" style="stop-color:#31363C"/>
		<stop  offset="0.7423" style="stop-color:#1B1F25"/>
		<stop  offset="1" style="stop-color:#000000"/>
		<stop  offset="1" style="stop-color:#000000"/>
	</radialGradient>
	<path class="st20" d="M822.4,458.8c4.9-4.6,10.1-9.8,15.5-15.7c5.9-6.4,33.3-36.5,33.3-36.5c-0.3,0.1,8.4-7.8,11.5-19.9
		c3.4-12.1-0.5-23.6-4.6-28.8c-5.2-6.5-8-9.8-13.1-14.2c4.4,5.1,7.2,8.6,11.8,15c3.7,4.9,7.3,16,4.1,27.6
		c-3,11.5-11.3,19.1-11.1,19.1c0,0-27.5,30.1-33.3,36.5C831.1,447.8,826.5,453.5,822.4,458.8z"/>
	<path class="st21" d="M856.1,581.3c-84.6-54.5-183.8-84.8-286.1-85.6c-0.6,1.7-1.2,3.6-2,5.6C670.3,501.4,769.9,529.7,856.1,581.3z
		"/>
	
		<linearGradient id="SVGID_22_" gradientUnits="userSpaceOnUse" x1="-972.1916" y1="305.1809" x2="-620.0772" y2="713.069" gradientTransform="matrix(0.3484 0.9374 -0.9374 0.3484 1384.9167 906.5522)">
		<stop  offset="0.1455" style="stop-color:#FFFFFF"/>
		<stop  offset="0.2346" style="stop-color:#B8BBBD"/>
		<stop  offset="0.3255" style="stop-color:#747A7F"/>
		<stop  offset="0.3682" style="stop-color:#5A6166"/>
		<stop  offset="0.5949" style="stop-color:#31363C"/>
		<stop  offset="0.7423" style="stop-color:#1B1F25"/>
		<stop  offset="1" style="stop-color:#000000"/>
		<stop  offset="1" style="stop-color:#000000"/>
	</linearGradient>
	<path class="st22" d="M669.6,234.5c-18.1,4.1-26.9,17.9-32.6,38.3c-7,22.5-41.8,135.3-41.8,135.3s-8.7,28.2-18.3,59.2
		c-5,15.5-8.9,32-15.1,44.8c-5.8,13-12.2,22.9-15.6,27.5c-5,7.3-9.3,12-13.6,16.9c-6.7,7.7-24.4,26-31.3,34.7
		c8-7.8,26-25.4,33.2-32.7c4.6-4.7,9.3-9.9,14.6-16.8c3.6-4.8,10.1-14.9,16-28.1c6.3-13.2,10.3-29.8,15.3-45.2
		c9.6-31,18.3-59.2,18.3-59.2s34.9-112.7,41.8-135.2C646.2,253.7,652.3,241.1,669.6,234.5z"/>
	<path class="st23" d="M695.8,361.4c1.8-6.4,2.9-10.8,4.3-18.6l9.4-50.9c0.4-2.7,3.6-14.6,3-22.6c-0.1-12.5-7.5-22.9-11.9-26.5
		c-6-5.5-10.7-7.2-17.2-8.3c6.3,2.2,10.3,4.4,16,9.6c4,3.5,11.2,13.4,11.4,25.3c0.1,8.6-2.5,19-3,22.2l-9.4,50.9
		C697,350.2,696.5,354.7,695.8,361.4z"/>
</g>
</svg>
